<?xml version="1.0" encoding="utf-8"?>
<!-- Generator: Adobe Illustrator 30.3.0, SVG Export Plug-In . SVG Version: 9.03 Build 0)  -->
<svg version="1.0" id="Ebene_1" xmlns="http://www.w3.org/2000/svg" xmlns:xlink="http://www.w3.org/1999/xlink" x="0px" y="0px"
	 viewBox="0 0 152.78 150.24" enable-background="new 0 0 152.78 150.24" xml:space="preserve">
<g>
	<rect x="146.53" y="87.77" fill-rule="evenodd" clip-rule="evenodd" fill="#FFFFFF" width="0.03" height="0.01"/>
	<path fill-rule="evenodd" clip-rule="evenodd" fill="#FFFFFF" d="M130.29,80.85c-0.29-0.17-0.61-0.29-0.96-0.38
		c-0.34-0.08-0.71-0.12-1.09-0.12c-0.16,0-0.32,0-0.49,0.01c0.33-0.41,0.6-0.82,0.81-1.22c0.4-0.76,0.6-1.52,0.6-2.27
		c0-0.37-0.09-0.71-0.28-1.02c-0.18-0.29-0.44-0.54-0.78-0.73c-0.31-0.18-0.66-0.32-1.05-0.4c-0.38-0.09-0.78-0.13-1.22-0.13
		c-0.9,0-1.79,0.08-2.65,0.24c-0.44,0.08-0.89,0.18-1.37,0.3c-0.48,0.12-1,0.26-1.54,0.42c-0.61,0.18-1.2,0.37-1.75,0.57
		c-0.56,0.2-1.1,0.42-1.62,0.66c-0.54,0.24-0.95,0.47-1.23,0.67c-0.39,0.29-0.59,0.59-0.59,0.91c0,0.13,0.02,0.26,0.06,0.38
		c0.04,0.12,0.11,0.24,0.2,0.34c0.09,0.1,0.19,0.19,0.31,0.24c0.13,0.06,0.26,0.1,0.4,0.1c0.14,0,0.31-0.05,0.51-0.14
		c0.15-0.07,0.33-0.17,0.53-0.3l0.01-0.01c0.19-0.13,0.37-0.24,0.52-0.33c0.15-0.08,0.28-0.15,0.38-0.19l0.01,0
		c0.43-0.19,0.83-0.35,1.19-0.49l0.21-0.08l-0.05,0.56c-0.03,0.36-0.06,0.67-0.07,0.94c-0.02,0.3-0.02,0.56-0.02,0.77
		c0,0.28,0.01,0.63,0.04,1.05c0.02,0.38,0.06,0.83,0.1,1.34l0.07,1.04c0.05,0.92,0.09,1.75,0.12,2.49c0.03,0.71,0.04,1.38,0.04,2
		c0,0.16-0.01,0.33-0.04,0.5c-0.03,0.19-0.08,0.39-0.14,0.6l-0.16,0.56c-0.05,0.17-0.07,0.29-0.07,0.36c0,0.15,0.04,0.3,0.11,0.43
		c0.07,0.12,0.16,0.23,0.28,0.32c0.1,0.08,0.21,0.14,0.32,0.18c0.12,0.04,0.24,0.06,0.37,0.06c0.15,0,0.29-0.02,0.42-0.06
		c0.16-0.05,0.3-0.14,0.4-0.26c0.03-0.04,0.07-0.09,0.1-0.14c0.01,0.1,0.04,0.2,0.08,0.29c0.07,0.14,0.16,0.26,0.29,0.36
		c0.1,0.08,0.22,0.13,0.34,0.17c0.12,0.04,0.24,0.06,0.37,0.06c0.21,0,0.45-0.05,0.72-0.14c0.25-0.08,0.53-0.21,0.84-0.37
		c0.29-0.15,0.6-0.33,0.91-0.52c0.3-0.18,0.61-0.39,0.93-0.61c0.46-0.33,0.91-0.67,1.33-1.01c0.42-0.35,0.81-0.7,1.15-1.04
		c0.46-0.46,0.88-0.9,1.26-1.34c0.37-0.42,0.7-0.83,0.97-1.21c0.29-0.41,0.51-0.81,0.66-1.22c0.15-0.42,0.23-0.85,0.23-1.27
		c0-0.42-0.08-0.79-0.25-1.11C130.89,81.3,130.63,81.04,130.29,80.85z M121.37,82.4c-0.03-0.52-0.05-1-0.07-1.43
		c-0.02-0.58-0.03-1.13-0.03-1.65c0-0.32,0.03-0.69,0.09-1.09c0.05-0.33,0.12-0.7,0.21-1.08c0.18-0.05,0.38-0.1,0.61-0.15
		c0.35-0.07,0.75-0.15,1.22-0.22c0.91-0.14,1.67-0.21,2.26-0.21c0.27,0,0.5,0.02,0.69,0.06c0.18,0.04,0.34,0.09,0.47,0.16
		c0.17,0.09,0.25,0.22,0.25,0.38c0,0.44-0.1,0.87-0.31,1.3c-0.21,0.45-0.54,0.89-0.97,1.34c-0.45,0.46-0.96,0.88-1.53,1.25
		c-0.57,0.38-1.2,0.71-1.89,1c-0.26,0.11-0.56,0.22-0.9,0.32L121.37,82.4z M129.1,83.49c-0.07,0.23-0.18,0.46-0.33,0.69
		c-0.16,0.26-0.36,0.53-0.59,0.82c-0.24,0.3-0.52,0.62-0.84,0.96c-0.19,0.2-0.41,0.42-0.67,0.64c-0.27,0.24-0.57,0.49-0.9,0.74
		c-0.33,0.26-0.64,0.48-0.93,0.68c-0.29,0.19-0.55,0.34-0.78,0.46c-0.11,0.06-0.23,0.1-0.36,0.15c-0.13,0.04-0.28,0.08-0.43,0.1
		l-0.02,0.01c-0.16,0.04-0.29,0.07-0.39,0.1c-0.11,0.03-0.21,0.06-0.3,0.1c-0.18,0.06-0.35,0.14-0.5,0.22
		c-0.16,0.09-0.3,0.19-0.42,0.31c-0.04,0.04-0.08,0.08-0.12,0.12c0.1-0.61,0.15-1.33,0.15-2.17c0-0.17,0-0.4-0.01-0.69
		c-0.01-0.25-0.01-0.49-0.03-0.74l-0.03-0.64c0-0.32-0.02-0.61-0.03-0.93l0.35-0.11c0.18-0.05,0.37-0.12,0.57-0.19
		c0.19-0.07,0.39-0.14,0.6-0.22c0.15-0.06,0.36-0.14,0.61-0.25c0.37-0.16,0.72-0.31,1.08-0.48l0.5-0.23
		c0.43-0.18,0.88-0.32,1.35-0.41c0.48-0.09,0.98-0.14,1.51-0.14c0.19,0,0.36,0.01,0.51,0.04c0.14,0.03,0.27,0.07,0.38,0.12
		c0.11,0.05,0.16,0.13,0.16,0.23C129.21,83.03,129.17,83.26,129.1,83.49z"/>
	<path fill-rule="evenodd" clip-rule="evenodd" fill="#FFFFFF" d="M133.69,76.43c0.32,0,0.58-0.04,0.77-0.13
		c0.33-0.15,0.49-0.39,0.49-0.72c0-0.12-0.04-0.25-0.14-0.4c-0.05-0.07-0.11-0.17-0.2-0.28l0,0c-0.17-0.22-0.32-0.4-0.45-0.53
		c-0.09-0.1-0.18-0.18-0.27-0.25c-0.11-0.09-0.22-0.15-0.33-0.18l-0.25-0.09h-0.08c-0.3,0-0.58,0.12-0.84,0.37
		c-0.12,0.12-0.22,0.24-0.28,0.38c-0.08,0.15-0.12,0.31-0.12,0.47c0,0.18,0.07,0.36,0.21,0.54c0.09,0.12,0.22,0.24,0.39,0.38
		c0.17,0.14,0.35,0.24,0.52,0.31C133.3,76.39,133.5,76.43,133.69,76.43z"/>
	<path fill-rule="evenodd" clip-rule="evenodd" fill="#FFFFFF" d="M135.36,88.5c-0.07-0.47-0.16-0.96-0.2-1.43
		c-0.04-0.45-0.08-0.98-0.1-1.58c-0.02-0.57-0.03-1.26-0.03-2.04l0.02-2.68c0-0.42-0.01-0.77-0.04-1.07
		c-0.03-0.32-0.07-0.56-0.12-0.74c-0.08-0.26-0.23-0.46-0.44-0.6c-0.2-0.13-0.43-0.19-0.71-0.19c-0.14,0-0.27,0.02-0.38,0.07l0,0
		c-0.15,0.06-0.27,0.16-0.36,0.29c-0.11,0.17-0.16,0.38-0.16,0.65l0.04,1.17l0.06,1.56l0.07,1.78l0.09,1.82
		c0.05,0.96,0.11,1.74,0.16,2.35c0.05,0.64,0.1,1.14,0.15,1.48c0.06,0.38,0.13,0.67,0.23,0.89c0.16,0.36,0.4,0.55,0.71,0.57
		c0.13,0.01,0.26,0,0.38-0.03c0.13-0.03,0.26-0.08,0.37-0.16c0.29-0.18,0.43-0.45,0.43-0.78c0-0.13-0.01-0.31-0.04-0.54
		C135.45,89.1,135.41,88.83,135.36,88.5z"/>
	<path fill-rule="evenodd" clip-rule="evenodd" fill="#FFFFFF" d="M152.69,75.33c-0.08-0.21-0.2-0.37-0.37-0.49
		c-0.18-0.14-0.44-0.23-0.75-0.29c-0.28-0.05-0.61-0.08-1-0.08c-0.32,0-0.77,0.03-1.35,0.1c-0.55,0.06-1.24,0.16-2.08,0.29l-0.01,0
		c-0.36,0.06-0.68,0.12-0.96,0.15l-0.14,0.02c-0.01-0.08-0.03-0.14-0.05-0.21c-0.04-0.14-0.11-0.25-0.19-0.33
		c-0.33-0.33-0.71-0.49-1.14-0.49c-0.25,0-0.43,0.12-0.55,0.36c-0.05,0.1-0.09,0.23-0.1,0.39c-0.02,0.14-0.03,0.35-0.03,0.6
		c-1.84,0.23-3.37,0.4-4.61,0.51l-0.98,0.07l-1.16,0.07c-0.12,0-0.23,0.02-0.33,0.05c-0.12,0.03-0.22,0.09-0.31,0.16
		c-0.12,0.09-0.21,0.21-0.27,0.35c-0.05,0.12-0.07,0.25-0.07,0.39c0,0.21,0.06,0.4,0.17,0.59c0.1,0.16,0.24,0.31,0.42,0.45
		c0.35,0.27,0.72,0.4,1.11,0.4c0.14,0,0.27-0.01,0.4-0.03c0.12-0.02,0.24-0.05,0.35-0.08c0.48-0.14,1.22-0.28,2.21-0.43
		c0.89-0.14,1.97-0.28,3.22-0.42l0.02,0.47c0.01,0.5,0.03,1.14,0.05,1.93c0.02,0.8,0.03,1.55,0.03,2.26
		c0.01,0.58,0.01,1.24,0.01,1.99c0,0.9-0.01,1.69-0.03,2.37c-0.02,0.7-0.06,1.35-0.1,1.95c0,0.21,0,0.64-0.02,0.83
		c0,0.12,0.02,0.23,0.06,0.34l0,0c0.04,0.11,0.1,0.21,0.17,0.3c0.08,0.1,0.18,0.18,0.29,0.23c0.12,0.06,0.25,0.09,0.38,0.09
		c0.14,0,0.28-0.02,0.42-0.06c0.13-0.04,0.26-0.1,0.38-0.17c0.14-0.09,0.26-0.19,0.35-0.31c0.1-0.13,0.16-0.27,0.19-0.43
		c0.03-0.13,0.05-0.35,0.07-0.65c0.02-0.27,0.03-0.63,0.04-1.1l0.03-1.28l0.01-1.16c0-0.75-0.01-1.59-0.02-2.53
		c-0.01-0.83-0.02-1.64-0.04-2.42c-0.02-0.79-0.04-1.47-0.06-2.04l-0.04-0.97c0.17-0.03,0.36-0.06,0.56-0.09
		c0.37-0.05,0.78-0.1,1.23-0.13c0.91-0.07,1.72-0.11,2.43-0.11c0.09,0,0.18,0.01,0.27,0.02c0.1,0.02,0.2,0.04,0.31,0.08
		c0.14,0.04,0.25,0.08,0.34,0.1c0.12,0.03,0.22,0.05,0.28,0.05c0.16,0,0.31-0.03,0.45-0.1c0.14-0.06,0.26-0.16,0.36-0.28
		c0.08-0.1,0.15-0.21,0.2-0.32c0.05-0.13,0.08-0.26,0.08-0.39C152.78,75.69,152.75,75.5,152.69,75.33z"/>
	<path fill-rule="evenodd" clip-rule="evenodd" fill="#FFFFFF" d="M45.4,83.14c0.15-0.42,0.23-0.85,0.23-1.27
		c0-0.42-0.08-0.79-0.25-1.11c-0.17-0.33-0.42-0.59-0.76-0.79c-0.29-0.17-0.61-0.29-0.96-0.38c-0.34-0.08-0.71-0.12-1.09-0.12
		c-0.16,0-0.32,0-0.49,0.01c0.33-0.41,0.6-0.82,0.81-1.22c0.4-0.76,0.6-1.52,0.6-2.27c0-0.37-0.09-0.71-0.28-1.02
		c-0.18-0.29-0.44-0.54-0.78-0.73c-0.31-0.18-0.66-0.32-1.05-0.4c-0.38-0.09-0.78-0.13-1.22-0.13c-0.9,0-1.79,0.08-2.65,0.24
		c-0.44,0.08-0.89,0.18-1.37,0.3c-0.48,0.12-1,0.26-1.54,0.42c-0.61,0.18-1.2,0.37-1.75,0.57c-0.56,0.2-1.1,0.42-1.62,0.66
		c-0.54,0.24-0.95,0.47-1.23,0.67c-0.39,0.29-0.59,0.59-0.59,0.91c0,0.13,0.02,0.26,0.06,0.38c0.04,0.13,0.11,0.24,0.2,0.34
		c0.09,0.1,0.19,0.19,0.31,0.24c0.13,0.06,0.26,0.1,0.4,0.1c0.14,0,0.31-0.05,0.51-0.14c0.15-0.07,0.33-0.17,0.53-0.3l0.01-0.01
		c0.19-0.13,0.37-0.24,0.52-0.33c0.15-0.08,0.28-0.15,0.38-0.19l0.01,0c0.43-0.19,0.83-0.35,1.19-0.49l0.21-0.08l-0.05,0.56
		c-0.03,0.36-0.06,0.67-0.07,0.94c-0.02,0.3-0.02,0.56-0.02,0.77c0,0.28,0.01,0.63,0.04,1.05c0.02,0.38,0.06,0.83,0.1,1.34
		l0.07,1.04c0.05,0.92,0.09,1.75,0.12,2.49c0.02,0.71,0.04,1.38,0.04,2c0,0.16-0.01,0.33-0.04,0.5c-0.03,0.19-0.08,0.39-0.14,0.6
		l-0.16,0.56c-0.05,0.17-0.07,0.29-0.07,0.36c0,0.15,0.04,0.3,0.11,0.43c0.07,0.12,0.16,0.23,0.28,0.32
		c0.1,0.08,0.21,0.14,0.32,0.18c0.12,0.04,0.24,0.06,0.37,0.06c0.15,0,0.29-0.02,0.42-0.06c0.16-0.05,0.3-0.14,0.4-0.26
		c0.03-0.04,0.07-0.09,0.1-0.14c0.01,0.1,0.04,0.2,0.08,0.29c0.07,0.14,0.16,0.26,0.29,0.36c0.1,0.08,0.22,0.13,0.34,0.17
		c0.12,0.04,0.24,0.06,0.37,0.06c0.21,0,0.45-0.05,0.72-0.14c0.25-0.08,0.53-0.21,0.84-0.37c0.29-0.15,0.6-0.33,0.91-0.52
		c0.3-0.18,0.61-0.39,0.93-0.61c0.46-0.33,0.91-0.67,1.33-1.01c0.42-0.35,0.81-0.7,1.15-1.04c0.46-0.46,0.88-0.9,1.26-1.34
		c0.37-0.42,0.7-0.83,0.97-1.21C45.03,83.95,45.25,83.55,45.4,83.14z M35.7,81.53c-0.03-0.52-0.05-1-0.07-1.43
		c-0.02-0.58-0.03-1.13-0.03-1.65c0-0.32,0.03-0.69,0.09-1.09c0.05-0.33,0.12-0.7,0.21-1.09c0.18-0.05,0.38-0.1,0.61-0.15
		c0.35-0.07,0.75-0.15,1.22-0.22c0.91-0.14,1.67-0.21,2.26-0.21c0.27,0,0.5,0.02,0.69,0.06c0.18,0.04,0.34,0.09,0.47,0.16
		c0.17,0.09,0.25,0.22,0.25,0.38c0,0.44-0.1,0.87-0.31,1.3c-0.21,0.45-0.54,0.89-0.97,1.34c-0.45,0.46-0.96,0.88-1.53,1.25
		c-0.57,0.38-1.2,0.71-1.89,1c-0.26,0.11-0.56,0.22-0.9,0.32L35.7,81.53z M43.43,82.61c-0.07,0.23-0.18,0.46-0.33,0.69
		c-0.16,0.26-0.36,0.53-0.59,0.82c-0.24,0.3-0.52,0.62-0.84,0.96c-0.19,0.2-0.41,0.42-0.67,0.64c-0.27,0.24-0.57,0.49-0.9,0.74
		c-0.33,0.26-0.64,0.48-0.93,0.68c-0.29,0.19-0.55,0.34-0.78,0.46c-0.11,0.06-0.23,0.1-0.36,0.15c-0.13,0.04-0.28,0.08-0.43,0.1
		l-0.02,0.01c-0.16,0.04-0.29,0.07-0.39,0.1c-0.11,0.03-0.21,0.06-0.3,0.1c-0.18,0.06-0.35,0.14-0.5,0.22
		c-0.16,0.09-0.3,0.19-0.42,0.31c-0.04,0.04-0.08,0.08-0.12,0.12c0.1-0.61,0.15-1.33,0.15-2.17c0-0.17,0-0.4-0.01-0.69
		c-0.01-0.25-0.01-0.49-0.03-0.74l-0.03-0.64c-0.01-0.32-0.02-0.61-0.03-0.93l0.35-0.11c0.18-0.05,0.37-0.12,0.57-0.19
		c0.19-0.07,0.39-0.14,0.6-0.22c0.15-0.06,0.36-0.14,0.61-0.25c0.37-0.16,0.72-0.31,1.08-0.48l0.5-0.23
		c0.43-0.18,0.88-0.32,1.35-0.41c0.48-0.09,0.98-0.14,1.51-0.14c0.19,0,0.36,0.01,0.51,0.04c0.14,0.03,0.27,0.07,0.38,0.12
		c0.11,0.05,0.16,0.13,0.16,0.23C43.53,82.15,43.5,82.39,43.43,82.61z"/>
	<path fill-rule="evenodd" clip-rule="evenodd" fill="#FFFFFF" d="M29.56,87.43c-0.02-0.02-0.03-0.04-0.05-0.06l-0.02-0.42
		c-0.06-1.61-0.1-3.23-0.16-4.84l-0.03-0.57c-0.02-0.27-0.07-0.48-0.15-0.65c-0.07-0.14-0.16-0.25-0.26-0.33
		c0.08-0.27,0.12-0.55,0.12-0.83c0-0.22-0.03-0.43-0.09-0.64c-0.06-0.21-0.15-0.4-0.27-0.58c-0.11-0.17-0.24-0.32-0.37-0.45
		c-0.14-0.13-0.29-0.25-0.45-0.34c-0.34-0.2-0.68-0.3-1.01-0.3c-0.17,0-0.35,0.03-0.55,0.08c-0.18,0.05-0.37,0.12-0.56,0.21
		c-0.19,0.09-0.41,0.22-0.65,0.39c-0.23,0.16-0.5,0.36-0.79,0.6l0,0c-0.44,0.36-0.88,0.77-1.32,1.23c-0.43,0.45-0.87,0.96-1.3,1.52
		c-0.43,0.55-0.83,1.1-1.18,1.65c-0.36,0.55-0.68,1.09-0.96,1.63c-0.28,0.55-0.5,1.05-0.64,1.49c-0.04,0.12-0.07,0.24-0.1,0.35
		c-0.05-0.03-0.09-0.06-0.15-0.1c-0.23-0.13-0.55-0.28-0.97-0.43c-0.37-0.13-0.88-0.3-1.52-0.51c-0.67-0.22-1.39-0.44-2.16-0.67
		l-0.48-0.14c-1.19-0.35-2.39-0.67-3.61-0.97l0.18-0.08c0.21-0.09,0.41-0.18,0.6-0.27c0.78-0.32,1.47-0.62,2.07-0.9
		c0.62-0.29,1.16-0.56,1.63-0.82c0.48-0.27,0.91-0.56,1.29-0.87c0.39-0.32,0.73-0.66,1.03-1.03c0.31-0.39,0.54-0.82,0.7-1.28
		c0.15-0.46,0.23-0.96,0.23-1.49c0-0.43-0.08-0.85-0.23-1.24c-0.15-0.39-0.38-0.75-0.68-1.08c-0.3-0.33-0.66-0.61-1.09-0.86
		c-0.42-0.24-0.9-0.45-1.45-0.62c-0.54-0.17-1.13-0.29-1.78-0.38c-0.65-0.08-1.34-0.12-2.08-0.12c-0.85,0-1.78,0.05-2.79,0.15
		c-0.51,0.05-0.97,0.11-1.37,0.16c-0.42,0.06-0.79,0.13-1.12,0.2c-0.58,0.12-1.14,0.26-1.68,0.42c-0.54,0.16-1.06,0.34-1.56,0.53
		c-0.52,0.2-0.92,0.4-1.19,0.59C0.2,75.06,0,75.35,0,75.68c0,0.13,0.02,0.26,0.06,0.39c0.04,0.13,0.11,0.24,0.19,0.35
		c0.09,0.11,0.19,0.2,0.3,0.26c0.13,0.07,0.27,0.1,0.41,0.1c0.19,0,0.38-0.04,0.57-0.12c0.08-0.03,0.16-0.07,0.24-0.12
		c0.07-0.04,0.15-0.08,0.22-0.13c0.21-0.12,0.44-0.23,0.67-0.34c0.24-0.11,0.48-0.22,0.72-0.31c0.24-0.1,0.54-0.2,0.88-0.3
		c0.35-0.1,0.77-0.21,1.25-0.33c0.11-0.03,0.26-0.05,0.44-0.08c0.18-0.03,0.38-0.06,0.6-0.09l0.22-0.03l-0.02,0.86l-0.01,0.71
		c0,0.22,0.01,0.9,0.04,2.05l0.1,4.18l-0.12,0.1C6.69,82.9,6.63,83,6.59,83.12c-0.04,0.1-0.05,0.21-0.05,0.32
		c0,0.05,0.01,0.12,0.02,0.21c0.01,0.06,0.02,0.14,0.04,0.23c0.02,0.1,0.04,0.18,0.06,0.25c0.02,0.08,0.04,0.16,0.07,0.24l0.01,0.04
		c0.03,0.08,0.08,0.16,0.12,0.23c0.05,0.07,0.11,0.14,0.18,0.2l0.02,0.58l0.05,0.93c0.03,0.49,0.05,0.87,0.07,1.15
		c0.01,0.28,0.02,0.5,0.02,0.65c0,0.21,0.01,0.42,0.02,0.61c0.01,0.18,0.03,0.34,0.05,0.49l0.05,0.33v0.04l0.01,0.05
		c0.05,0.25,0.14,0.46,0.28,0.61c0.18,0.19,0.39,0.29,0.66,0.29c0.14,0,0.29-0.02,0.43-0.07c0.13-0.04,0.26-0.11,0.38-0.19
		c0.15-0.1,0.26-0.22,0.34-0.35c0.09-0.15,0.14-0.32,0.14-0.49c0-0.08-0.02-0.18-0.05-0.32c-0.02-0.09-0.06-0.22-0.11-0.38
		c-0.03-0.11-0.06-0.24-0.09-0.39c-0.02-0.16-0.04-0.33-0.05-0.51l-0.12-2.25l0.27,0.07c0.36,0.09,0.77,0.2,1.24,0.32
		c0.93,0.25,1.73,0.49,2.38,0.7c0.77,0.26,1.45,0.53,2.05,0.79c0.61,0.26,1.14,0.53,1.6,0.8l0.01,0.01c0.16,0.09,0.29,0.16,0.38,0.2
		c0.12,0.06,0.22,0.11,0.3,0.14c0.2,0.08,0.4,0.12,0.62,0.12c0.2,0,0.39-0.07,0.57-0.21c0.09-0.07,0.17-0.17,0.25-0.28
		c0.09,0.25,0.22,0.48,0.39,0.68c0.37,0.42,0.87,0.63,1.51,0.63c0.56,0,1.11-0.11,1.65-0.32c0.53-0.21,1.04-0.52,1.53-0.92
		c0.47-0.39,0.9-0.79,1.29-1.2c0.39-0.42,0.75-0.85,1.05-1.29c0.28-0.41,0.59-0.87,0.93-1.4l0.29-0.47l0,0.18
		c-0.05,1.87-0.07,2.96-0.07,3.28c0,0.24,0.02,0.47,0.06,0.69c0.04,0.22,0.1,0.43,0.19,0.62c0.1,0.24,0.24,0.42,0.4,0.56
		c0.19,0.16,0.41,0.23,0.66,0.23c0.34,0,0.63-0.2,0.89-0.59c0.21-0.32,0.31-0.62,0.31-0.9c0-0.13-0.04-0.25-0.11-0.38
		C29.71,87.6,29.65,87.52,29.56,87.43z M9.61,81.76c-0.16,0.06-0.33,0.12-0.53,0.18l-0.16,0.05l-0.07-2.17L8.76,76.2
		c0-0.23,0-0.43,0.01-0.58c0.01-0.18,0.01-0.37,0.03-0.58l0.02-0.29c0.3-0.01,0.73-0.02,1.3-0.02c0.61,0,1.17,0.03,1.68,0.09
		c0.51,0.06,0.97,0.16,1.38,0.28c0.41,0.12,0.77,0.26,1.07,0.42c0.29,0.15,0.52,0.31,0.71,0.49c0.17,0.17,0.3,0.34,0.38,0.51
		c0.08,0.16,0.11,0.33,0.11,0.5c0,0.42-0.1,0.82-0.29,1.19c-0.2,0.39-0.52,0.75-0.93,1.1c-0.9,0.74-2.29,1.49-4.16,2.24l-0.02,0.01
		C9.92,81.63,9.78,81.69,9.61,81.76L9.61,81.76z M18.14,87.31l-0.01,0.02c0.01-0.06,0.02-0.18,0.02-0.1
		C18.15,87.25,18.14,87.28,18.14,87.31z M27.07,80.89c-0.04,0.2-0.09,0.39-0.16,0.57c-0.35,0.6-0.69,1.15-1.01,1.64
		c-0.33,0.51-0.64,0.98-0.93,1.38c-0.28,0.4-0.59,0.77-0.91,1.12c-0.33,0.35-0.67,0.66-1.02,0.95c-0.66,0.53-1.34,0.79-2.04,0.79
		c-0.06,0-0.1,0-0.1-0.01c-0.01-0.01-0.02-0.07-0.02-0.16c0-0.22,0.05-0.49,0.16-0.8c0.12-0.34,0.29-0.74,0.53-1.18
		c0.24-0.45,0.51-0.91,0.82-1.37c0.3-0.46,0.64-0.93,1.01-1.4c0.38-0.48,0.74-0.9,1.08-1.26c0.34-0.36,0.68-0.68,1.01-0.96
		l0.01-0.01c0.26-0.23,0.5-0.4,0.71-0.51c0.17-0.09,0.3-0.13,0.41-0.13c0.08,0,0.16,0.01,0.21,0.04c0.05,0.02,0.1,0.06,0.15,0.12
		c0.06,0.07,0.1,0.15,0.13,0.23c0.03,0.08,0.04,0.18,0.04,0.28C27.13,80.45,27.11,80.68,27.07,80.89z"/>
	<path fill-rule="evenodd" clip-rule="evenodd" fill="#FFFFFF" d="M92.55,91.56l-2.16,0.71l0.5,1.96
		C92.21,93.95,92.37,92.83,92.55,91.56z"/>
	<path fill-rule="evenodd" clip-rule="evenodd" fill="#FFFFFF" d="M84.32,105.08c0.47-0.29,1.42-1.63,1.66-2.08
		c1.27-2.34,1.05-7.24,0.97-9.81l-2.3,0.32c-0.15,1.5-0.31,2.98-0.46,4.48l-0.38,3.43c-0.01,0.26-0.01,0.22,0.04,0.47
		c0.08,0.4,0.03,0.23,0.17,0.47l0.63-3.59C84.59,100.87,84.06,102.99,84.32,105.08z"/>
	<path fill-rule="evenodd" clip-rule="evenodd" fill="#FFFFFF" d="M63.86,91.8c0.06,1.86,0.35,3.41,1.8,3.89l0.06-1.21
		c0.36,1.56,0.39,2.89,2.06,3.1c-0.12-1.6-0.24-2.73-0.13-4.36L63.86,91.8z"/>
	<path fill-rule="evenodd" clip-rule="evenodd" fill="#FFFFFF" d="M79.06,114.83c0.73-0.11,0.59,0.01,0.84-0.85
		c1.42-4.92,4.35-16.35,4.19-20.3l-0.39,0.88c-0.21-0.81-0.12-0.69-0.37-0.81c-0.05,0.45-0.11,0.91-0.18,1.35l-0.34,1.07l-0.07-2.69
		c-0.95-0.05-1.68-0.24-2.44-0.63c-0.47-0.23-0.56-0.32-0.95-0.69l-0.87-0.72C78.49,94.93,78.32,112.95,79.06,114.83z"/>
	<path fill-rule="evenodd" clip-rule="evenodd" fill="#FFFFFF" d="M89.4,92.54l-1.88,0.64l0.27,4.78c1.64-0.15,1.74-0.15,1.75-1.6
		c0.03,0.05,0.06,0.11,0.08,0.15l0.61,0.85c0.88-0.79,0.47-1.15,0.15-2.41C90.15,94.09,89.9,93.21,89.4,92.54z"/>
	<path fill-rule="evenodd" clip-rule="evenodd" fill="#FFFFFF" d="M77.74,91.98c-0.05,0.03-0.1,0.08-0.14,0.11
		c-2.34,2.03-0.65,0.88-3.95,2.54c-0.05,0.77-0.1,1.7-0.36,2.26c-0.02-0.39-0.01-0.81-0.03-1.19l-0.2-0.97
		c-0.51,0.34-0.38,0.31-0.41,1.15c-0.21,4.46,1.46,13.38,3.22,16.66l0.31-3.02c0.03,0.31,0.01,0.77,0.02,1.1
		c0.01,0.64,0.04,1.27,0.07,1.98l0.92-0.21L77.74,91.98z"/>
	<path fill-rule="evenodd" clip-rule="evenodd" fill="#FFFFFF" d="M71.23,104.41c1.05-2.36,0.98-1.49,0.81-4.56
		c-0.05-0.89-0.11-1.79-0.13-2.68c-0.04-1.17,0.16-1.97-0.39-2.33l-0.13,3.14l-0.33-1.73c-0.05-0.63-0.08-1.17-0.18-1.79
		c-0.75-0.27-1.43-0.73-2.06-0.65C68.67,97.46,68.75,102.7,71.23,104.41z"/>
	<path fill-rule="evenodd" clip-rule="evenodd" fill="#FFFFFF" d="M85.8,71.17l3.16-2.97c2.61-2.19,4.95-2.99,6.27-3.91
		c-2.92-0.1-2.11-0.24-3.28-0.96C90.35,64.29,86.66,69.09,85.8,71.17z"/>
	<path fill-rule="evenodd" clip-rule="evenodd" fill="#FFFFFF" d="M111.6,86.46c-0.56-0.51-3.6-2-4.39-2.34
		c0.2-0.17-0.06-0.01,0.35-0.23L109.9,83c-0.36-1.47-2.01-2.83-3.41-3.43l-0.06,0.19c0,0.02-0.02,0.08-0.02,0.09
		c0,0.02-0.01,0.08-0.01,0.09c0,0.01,0,0.21-0.01,0.27c-1.82-2.05-4.04-0.66-8.2-0.28c-5.12,0.47-5.65-0.2-9.56-0.56
		c2.22,1.73,8.79,2.14,10.32,2.9c-3.59-0.02-9-0.9-12.18-2.64c-2.03-1.11-2.13-1.53-2.87-1.96c0.01,2.16,0.92,3.47,2.22,4.25
		c-0.18,2.51-0.84,2.91-1.57,4.67c0.17-0.02,0.66-0.1,0.77-0.1l0.68,0.16c-0.91,0.59-1.67,1.36-2.8,2.11l-2.93,1.87
		c1,1.71,4.85,1.38,7.09,1.02c1.66-0.26,5.52-1.11,6.58-1.96l-1.62-0.03c1.07-0.82,6.19-2.27,7.98-2.56
		c-0.29-0.55-0.04,0.02-0.26-0.32c-0.04-0.06-0.07-0.1-0.1-0.13c-0.12,0.25-0.19-0.2,0,0c0.01-0.02,0.02-0.03,0.03-0.07
		C104.3,85.79,107.29,86.07,111.6,86.46z M101.33,80.04c1.1-0.12,2.38-0.5,3.25-0.04c1.27,0.67,1.02,1.18,2.45,0.65
		c0.43,0.77,1.06,1.13,1.3,2.17l-1.79,1.17c0.39,0.32,1.87,1.49,2.24,1.67c-4.66,0.01-1.29-0.66-7.99,0.27
		C101.31,84.98,107.13,81.42,101.33,80.04z"/>
	<path fill-rule="evenodd" clip-rule="evenodd" fill="#FFFFFF" d="M61.69,65.83c-0.49-0.37-0.96-0.59-1.44-0.91l0,1.38L56,66.44
		c4.92,1.5,7.13,3.03,10.95,5.76c0.92,0.66,2.46,2.09,3.2,2.46C68.85,71.69,64.45,67.88,61.69,65.83z"/>
	<path fill-rule="evenodd" clip-rule="evenodd" fill="#FFFFFF" d="M67.96,76.88c-0.21-0.02-0.27-0.02-0.47-0.01
		c-0.2,0.01-0.57,0.06-0.8,0.08c-5.11,0.47-6.97-0.35-11.43-1.21c1.56,3.58,9.77,1.75,13.15,1.24L67.96,76.88z"/>
	<path fill-rule="evenodd" clip-rule="evenodd" fill="#FFFFFF" d="M75.66,88.69c-0.24-0.61-0.55-0.76-0.96-1.34l-2.33-4.18
		c0.15-0.3-0.42-0.34,0.48-0.17l-0.34-0.36c0,0-0.24-0.17-0.28-0.2c2.07-1.42,8.78-0.51,11.21-0.02c-1.84,1.85-6.99,1.27-7.98,1.39
		l0.25,0.15c0.04,0.02,0.09,0.05,0.13,0.06c0.05,0.02,0.09,0.04,0.14,0.05l1.89,0.18l-0.11,5.68c2.75-0.89,6.33-4.8,7.04-8.14
		c-2.76-0.5-3.97-1.19-7.38-1.11c-2.03,0.05-5.75,0.39-7.14,1.39C71.1,84.34,73.82,87.68,75.66,88.69z M78.11,89.35l0.46-5.02
		c2.29-0.26,2.84-0.42,4.81-0.98C82.85,85.37,79.31,88.91,78.11,89.35z"/>
	<path fill-rule="evenodd" clip-rule="evenodd" fill="#FFFFFF" d="M122.51,13.04c0.84-1.16,2.64-4.31,2.69-6.19
		c-1.32-0.85-5.85-0.86-6.9,0.02c6.72,3.49-4.69,12.58-8.67,16.93c-4.01,4.38-6.32,6.7-8.55,12.9c-1.48,4.12-2.31,8.13-2.65,12.52
		c-0.09,1.09-0.33,1.44,0.62,1.63c0.22-0.33,0.3-5.01,0.95-7.79c0.54-2.33,1.32-4.39,2.26-6.47c2.46-5.44,6.91-11.2,11.1-15.26
		C116.46,18.32,120.82,15.37,122.51,13.04z"/>
	<path fill-rule="evenodd" clip-rule="evenodd" fill="#FFFFFF" d="M101.48,18.18c2.6-4.83,5.11-8.06,9.17-10.62
		c5.8-3.66,10.12-3.33,16.18-3.07c-1.1-6.93-15.55-7.66-26.48,11.31c-4.3,7.48-7.81,16.15-10.2,24.68c-0.79,2.81-1.94,6.65-2.3,9.66
		l6.23,0.49C93.52,40.26,97.18,26.16,101.48,18.18z M88.5,49.67c-0.03-0.95,2.36-8.98,2.79-9.86l0.24,1.6
		c0.98-0.24,1.26-1.27,1.86-2.6c0.45-0.98,0.71-2.2,1.29-3.06c-0.2,4.57-1.44,6.43-1.19,14.29L88.5,49.67z"/>
	<path fill-rule="evenodd" clip-rule="evenodd" fill="#FFFFFF" d="M38.98,6.63c-1.05-0.89-5.57-0.88-6.9-0.02
		c0.05,1.89,1.85,5.04,2.69,6.19c1.7,2.33,6.06,5.28,9.16,8.29c4.19,4.06,8.64,9.82,11.1,15.26c0.94,2.08,1.72,4.14,2.26,6.47
		c0.65,2.79,0.73,7.47,0.95,7.79c0.95-0.19,0.7-0.54,0.62-1.63c-0.35-4.4-1.17-8.4-2.65-12.52c-2.23-6.2-4.55-8.52-8.55-12.9
		C43.67,19.21,32.26,10.12,38.98,6.63z"/>
	<path fill-rule="evenodd" clip-rule="evenodd" fill="#FFFFFF" d="M42.55,4.63c1.01,0.43,1.97,1.11,2.72,1.38
		c-0.44-0.34-0.74-0.77-1.19-1.25c-1.51-1.63-6-4.6-8.97-3.81c-1.34,0.35-2.75,1.27-3.1,2.22C35.99,3.07,38.86,3.07,42.55,4.63z"/>
	<path fill-rule="evenodd" clip-rule="evenodd" fill="#FFFFFF" d="M80.75,69.73c-1.54,0-1.15-0.72-2.18-0.68
		c-0.36,2.63,1.42,5.15,3.11,5.79c1.51-6.02,3.64-11.71,7.88-16.12l-0.35,2.53c0.89-0.45,1.23-1.22,2.03-1.87
		c1.46-1.19,2.85-2.3,4.53-3.29c0.76-0.44,1.98-0.8,2.57-1.46c-7.9-2.68-13.81-3.24-22.01-2.18c-0.21,0.03-0.61,0.07-0.78,0.11
		l-0.7,0.3C82.07,56.45,83.39,65.94,80.75,69.73z"/>
	<path fill-rule="evenodd" clip-rule="evenodd" fill="#FFFFFF" d="M63.74,39.7c-0.01-0.22-0.03-0.46-0.05-0.69
		c-0.42-0.72-1.24-1.78-1.93-2.29c1.76,3.99,1.62,6.66,1.16,13.16l3.94-0.57c-0.57-20.36-10.9-31.51-15.38-36.77
		c5.81,7.96,11.7,18.55,12.21,26.47C64.02,39.57,64.11,39.93,63.74,39.7z"/>
	<path fill-rule="evenodd" clip-rule="evenodd" fill="#FFFFFF" d="M94.5,92.43l-0.53,1.84c-0.32,1.21-0.29,0.95-1.25,1.49l0.58,2.56
		c-0.73,0.23-1.11,0.65-1.93,0.99c-0.64,0.27-1.61,0.44-2.12,0.81c-0.86,0.97,0.15,4.32-3.23,6.92c-2.23,1.71-1.83,0.65-2.32,2.76
		c-0.3,1.3-0.81,2.9-0.97,4.15l0.15,0.28c0.62-0.49,2.12-0.96,2.99-0.86l1.17-1.13c0.66-0.92,1.36-4.49,2.06-4.89
		c0.11-0.69,0.8-1.87,1.25-2.28c0.6-1.43,1.86-1.97,2.36-3.85c0.34-1.29,0.62-3.54,1.83-4.4c0.13-0.74,1.02-1.49,2-1.68
		c0.72-0.14,2.4,0.2,3.09,0.31c1.85-0.72,1.28-0.12,3.27-2.08c3.46-3.41,7.55-3.37,12.47-3.24C112.32,87.97,95.12,91.05,94.5,92.43z
		 M84.2,111.27c-0.14-1.76,0.54-2.44,1.47-3.11c1.05-0.75,1.62-1.51,2.45-2.24C86.4,108.55,86.36,110.79,84.2,111.27z M99.38,92.95
		c-2.89,0.49-2.08,0.68-3.53,1.13c0.69-1.36,0.99-1.56,2.64-1.99c1.25-0.32,2.53-0.6,3.85-0.74
		C101.77,92.08,100.32,92.79,99.38,92.95z"/>
	<path fill-rule="evenodd" clip-rule="evenodd" fill="#FFFFFF" d="M70.76,107.65l-1.24-0.7c-0.63-1.18-2.51-1.84-3.06-7.38
		c-1.17-0.45-1.3-0.52-1.95-1.3c-0.51-0.62-0.14-0.29-0.89-0.74c-2.07-1.24-1.71-3.02-2.27-5.36c-4.03-1.59-12.17-3.45-16.92-2.47
		c2.74-0.2,5.67,0.38,7.76,1.44c0.98,0.49,1.96,1.26,2.57,1.97c0.62,0.71,1.28,2.15,1.93,2.6c2.17,0.09,2.31-3.01,4.43,0.12
		c4.14,6.09,0.4,18.64,1.82,21.98c0.33,0.78,3.59,3.02,1.93-5.79c-0.56-2.98-0.72-6.8-0.6-9.94c0.05-1.25-0.01-2.29,0.95-2.53
		c0.77,1.26,0.77,3.93,0.75,5.62c-0.02,1.62,1.19,3.46,3.03,3.03c0.45-0.03,0.16-0.15,0.4,0.06c-0.14,1.26-0.21,2.2,0.54,2.92
		c0.66,0.65,1.86,0.64,2.78,0.38C71.79,107.46,71.96,108.22,70.76,107.65z M58.89,93.73c-1.34-0.17-1.84-0.96-3.13-1.81
		c-0.47-0.31-1.06-0.61-1.4-0.94c1.3,0.09,4.83,1.05,5.83,1.61c0.62,0.35,0.58,0.84,0.71,1.69C59.92,93.69,60.19,93.9,58.89,93.73z"
		/>
	<path fill-rule="evenodd" clip-rule="evenodd" fill="#FFFFFF" d="M73.99,116.32l0.27-1.12l-0.44-0.79
		c-0.28,0.21-0.68,0.16-1.09,0.44c-0.28,0.2-0.46,0.48-0.56,0.95c-0.39,1.76,2.58,2.88,2.81,0.14
		C73.78,116.04,74.64,115.84,73.99,116.32z"/>
	<path fill-rule="evenodd" clip-rule="evenodd" fill="#FFFFFF" d="M82.41,116.86l-0.29-0.9l-0.52,1.18l-4.14-0.08
		c-0.28,7.3,0.98,21.65-0.23,27.34c-0.64,3.01-0.17,5.82,3.11,5.84c3.26,0.02,2.05-4.45,1.51-6.58c-1.12-4.38-0.91-2.5-1.73-7.55
		c-0.78-4.8-1.75-10.02-1.34-14.91c0.06-0.69,0.07-1.26,0.5-1.75c-0.23-0.87,0.01-0.92,0.21-1.72c0.42,1.1,0.51,2.4,1.06,3.75
		c0.56,1.36,1.05,2.07,1.66,3.08c0.62,1.02,1.26,1.85,1.89,3.01l1.52,3.3C85.02,126.89,78.35,120.36,82.41,116.86z M79.91,142.42
		c-0.34-2.77-0.83-3.92-0.61-7.21c0.41,1.32,0.49,3.22,0.9,4.81c0.55,2.1,2.89,8.22,0.85,9.3c-0.79,0.42-1.66,0.02-2.23-0.3
		c-0.76-0.43-1.07-0.96-1.15-2.16C80.81,147.86,80.36,146.11,79.91,142.42z"/>
	<path fill-rule="evenodd" clip-rule="evenodd" fill="#FFFFFF" d="M46.58,51.31c-1.05,1.92-2.25,4.1-2,5.91l0.11,0.84l0.36-0.76
		c0.16-0.34,0.27-0.85,0.39-1.38c0.09-0.4,0.18-0.82,0.29-1.13c0.55-1.56,1.21-2.54,1.9-3.58c0.56-0.85,1.14-1.72,1.67-2.93
		c1-2.3,1.03-4.49,0.06-6.01c-0.99-1.55-2.92-2.38-5.73-2.45l-0.77-0.02l0.71,0.54c0.07,0.05,0.07,0.05,0.13,0.09l0.15,0.09
		c1.56,0.92,1.52,1.57,1.49,2.09c-0.02,0.28-0.04,0.56,0.18,0.81c0.05,0.07,0.14,0.11,0.32,0.21c0.87,0.48,3.18,1.75,2.08,4.96
		C47.64,49.37,47.12,50.31,46.58,51.31z"/>
	<path fill-rule="evenodd" clip-rule="evenodd" fill="#FFFFFF" d="M121,25.74c-3.36,2.32-4.65,6.72-3.83,13.1
		c0.04,0.31,0.13,0.82,0.23,1.37c0.18,1.04,0.43,2.46,0.38,2.8l-0.01,0.09c-0.07,0.55-0.08,0.63,0.08,0.79
		c0.04,0.04,0.09,0.09,0.18,0.29c0.36,0.82,0.35,1.33,0.34,1.82c-0.01,0.45-0.02,0.92,0.26,1.57l0.16,0.39l0.15-0.19
		c0.03,0.3,0.08,0.74,0.19,1.34c1.84,9.65-1.39,11.87-3.13,13.07c-0.38,0.26-0.67,0.46-0.86,0.69l-0.44,0.54l0.68-0.14
		c3.17-0.66,7.2-3.97,8.75-9.03c0.89-2.89,0.8-5.94,0.72-8.89c-0.11-3.89-0.23-7.92,1.95-11.51c1.12-1.84,2.8-2.96,3.99-2.67
		c0.93,0.23,1.5,1.3,1.59,3.02c0.06,1.14,0.29,2.14,0.52,3.14l1.33,4.23c0.13,0.26,0.28,0.48,0.42,0.67
		c0.13,0.19,0.26,0.37,0.34,0.55l0.87,0.96l0.05,0.04c3.77,2.37,7.01-2.75,8.56-5.21l0.27-0.42l-0.5,0.04
		c-0.45,0.04-0.57,0.1-0.79,0.24c-0.09,0.05-0.19,0.12-0.37,0.2c-2.45,1.16-6.7,1.28-8.28-1.5l-0.04-0.05
		c-0.16-0.17-0.75-1.2-0.89-1.55c-0.16-0.39-0.44-1.3-0.5-1.78l-0.01-0.04c-0.1-0.36-0.17-0.68-0.23-0.99
		c-0.07-0.32-0.13-0.64-0.23-0.97c-0.91-3.23-3.15-5.85-5.87-6.84C124.97,24.16,122.88,24.45,121,25.74z M125.96,26.22
		c-2.07,1.35-2.31,2.83-2.47,3.84c-0.07,0.42-0.12,0.78-0.25,0.97c-0.02,0.01-0.05,0.03-0.09,0.06c-1.8,1.12-4.75,3.82-4.2,9.35
		c0.07,0.74,0.2,1.58,0.35,2.48c-0.27-1.18-0.53-2.41-0.73-3.75c-0.41-2.68-0.2-6.87,0.99-9.34c1.11-2.31,3.21-3.65,5.58-3.65
		C125.41,26.17,125.68,26.19,125.96,26.22z"/>
	<path fill-rule="evenodd" clip-rule="evenodd" fill="#FFFFFF" d="M135.45,57.36c0.34,0.33,0.3,0.95-0.1,1.74
		c-0.29,0.57-0.47,1.14-0.63,1.66l-0.54,2.39c-0.01,0.16,0,0.31,0.01,0.45c0.01,0.12,0.02,0.23,0.01,0.33l-0.01,0.04l0.16,0.69
		l0.02,0.06c1.19,2.26,4.31,0.64,5.64-0.06l0.45-0.23l-0.45-0.22c-0.23-0.11-0.34-0.12-0.49-0.12c-0.05,0-0.12,0-0.22-0.01
		c-1.4-0.12-3.42-1.22-3.41-2.88l-0.01-0.06c-0.03-0.11-0.02-0.74,0.01-0.94c0.03-0.23,0.15-0.72,0.25-0.95l0.01-0.03
		c0.05-0.2,0.11-0.36,0.16-0.53c0.06-0.17,0.11-0.34,0.16-0.53c0.47-1.82,0.12-3.71-0.92-4.96c-0.8-0.96-1.91-1.41-3.19-1.31
		c-2.28,0.17-4.13,1.93-5.52,5.22c-0.07,0.16-0.17,0.43-0.27,0.72c-0.17,0.47-0.46,1.26-0.61,1.44c-0.19,0.25-0.25,0.32-0.2,0.5
		c0,0.02,0.01,0.05,0,0.15c-0.05,0.46-0.19,0.68-0.32,0.91c-0.13,0.22-0.27,0.45-0.33,0.86l-0.05,0.42l0.05-0.02
		c-0.05,0.12-0.11,0.27-0.17,0.45c-1.76,5.01-3.86,5.17-4.99,5.25c-0.26,0.02-0.46,0.03-0.63,0.1l-0.65,0.25l0.66,0.22
		c0.45,0.15,0.97,0.23,1.54,0.23c1.62,0,3.61-0.64,5.21-2.12c1.23-1.14,2.04-2.61,2.81-4.04c1.06-1.95,2.06-3.78,4.05-4.87
		C133.95,57,135,56.92,135.45,57.36z M132.29,54.66c-0.12,0.15-0.23,0.29-0.34,0.35h0c0,0-0.01,0-0.01,0
		c-1.04,0.03-2.85,0.4-4.15,2.4c0.54-1.19,1.68-2.97,2.87-3.78c0.61-0.41,1.28-0.62,1.94-0.62c0.59,0,1.18,0.17,1.7,0.5
		C133.11,53.65,132.63,54.24,132.29,54.66z"/>
	<path fill-rule="evenodd" clip-rule="evenodd" fill="#FFFFFF" d="M22.47,56.74c1.99,1.09,2.99,2.92,4.05,4.87
		c0.78,1.43,1.58,2.91,2.81,4.04c1.6,1.48,3.59,2.12,5.21,2.12c0.57,0,1.09-0.08,1.54-0.23l0.66-0.22l-0.65-0.25
		c-0.17-0.06-0.37-0.08-0.63-0.1c-1.13-0.08-3.22-0.24-4.99-5.25c-0.06-0.18-0.12-0.33-0.17-0.45l0.05,0.02l-0.05-0.42
		c-0.05-0.41-0.19-0.64-0.33-0.86c-0.14-0.23-0.27-0.45-0.32-0.91c-0.01-0.1,0-0.13,0-0.15c0.04-0.17-0.01-0.25-0.24-0.54
		c-0.11-0.13-0.4-0.92-0.57-1.39c-0.11-0.29-0.2-0.56-0.27-0.72c-1.38-3.29-3.24-5.05-5.52-5.22c-1.28-0.09-2.39,0.36-3.19,1.32
		c-1.04,1.24-1.39,3.14-0.92,4.96c0.05,0.19,0.1,0.36,0.16,0.53c0.05,0.16,0.11,0.33,0.16,0.53l0.01,0.03
		c0.1,0.23,0.21,0.73,0.25,0.95c0.03,0.2,0.03,0.83,0.01,0.94l-0.01,0.06c0.02,1.66-2,2.76-3.41,2.88c-0.1,0.01-0.17,0.01-0.22,0.01
		c-0.15-0.01-0.26,0.01-0.49,0.12l-0.45,0.22l0.45,0.23c1.33,0.7,4.46,2.32,5.64,0.06l0.18-0.75l-0.01-0.04
		c-0.01-0.1,0-0.2,0.01-0.33c0.01-0.14,0.03-0.29,0.01-0.49l-0.54-2.37c-0.16-0.5-0.33-1.07-0.62-1.64c-0.4-0.79-0.44-1.41-0.1-1.74
		C20.43,56.12,21.48,56.2,22.47,56.74z M24.79,52.83c1.19,0.81,2.33,2.59,2.87,3.78c-1.29-1.98-3.08-2.37-4.17-2.4
		c-0.11-0.06-0.22-0.19-0.34-0.35c-0.34-0.41-0.82-1.01-2-1.15C22.25,52.01,23.62,52.04,24.79,52.83z"/>
	<path fill-rule="evenodd" clip-rule="evenodd" fill="#FFFFFF" d="M112.45,40.5l0.16-0.09c0.06-0.03,0.06-0.03,0.13-0.09l0.71-0.54
		l-0.77,0.02c-2.81,0.07-4.74,0.89-5.73,2.45c-0.97,1.52-0.95,3.71,0.06,6.01c0.53,1.21,1.11,2.08,1.67,2.93
		c0.69,1.04,1.35,2.03,1.9,3.58c0.11,0.31,0.2,0.73,0.29,1.13c0.12,0.53,0.23,1.04,0.39,1.38l0.36,0.76l0.11-0.84
		c0.24-1.81-0.95-3.99-2-5.91c-0.55-1-1.06-1.94-1.34-2.74c-1.1-3.21,1.21-4.48,2.08-4.96c0.18-0.1,0.26-0.14,0.32-0.21
		c0.21-0.25,0.19-0.54,0.18-0.81C110.93,42.07,110.89,41.43,112.45,40.5z"/>
	<path fill-rule="evenodd" clip-rule="evenodd" fill="#FFFFFF" d="M20.64,43.79l0.88-0.93l0.05-0.07c0.08-0.18,0.21-0.36,0.34-0.55
		c0.14-0.19,0.3-0.41,0.44-0.7l1.32-4.22c0.21-0.92,0.46-1.97,0.52-3.12c0.09-1.71,0.66-2.79,1.59-3.02
		c1.19-0.3,2.87,0.82,3.99,2.67c2.17,3.59,2.06,7.62,1.95,11.51c-0.08,2.95-0.17,6.01,0.72,8.89c1.56,5.06,5.58,8.37,8.75,9.03
		l0.68,0.14l-0.44-0.54c-0.19-0.23-0.48-0.44-0.86-0.7c-1.74-1.19-4.97-3.42-3.13-13.07c0.12-0.6,0.16-1.04,0.2-1.34l0.15,0.19
		l0.16-0.39c0.27-0.65,0.27-1.12,0.26-1.57c-0.01-0.49-0.02-1,0.34-1.82c0.09-0.2,0.14-0.26,0.18-0.29
		c0.16-0.16,0.15-0.25,0.08-0.79l-0.01-0.1c-0.06-0.34,0.2-1.76,0.38-2.79c0.1-0.55,0.19-1.05,0.23-1.37
		c0.83-6.38-0.46-10.79-3.83-13.1c-1.88-1.29-3.97-1.58-6.05-0.83c-2.72,0.98-4.97,3.6-5.87,6.84c-0.09,0.33-0.16,0.64-0.23,0.96
		c-0.07,0.31-0.14,0.64-0.24,1l-0.01,0.04c-0.06,0.48-0.34,1.39-0.5,1.78c-0.14,0.35-0.73,1.38-0.89,1.55l-0.04,0.05
		c-1.58,2.78-5.82,2.66-8.28,1.5c-0.18-0.08-0.29-0.15-0.37-0.2c-0.22-0.14-0.35-0.2-0.79-0.24l-0.5-0.04l0.27,0.42
		C13.64,41.04,16.87,46.16,20.64,43.79z M37.02,29.82c1.19,2.47,1.4,6.66,0.99,9.34c-0.2,1.34-0.46,2.57-0.73,3.75
		c0.15-0.9,0.27-1.73,0.34-2.48c0.55-5.53-2.39-8.24-4.19-9.35c-0.03-0.02-0.05-0.03-0.05-0.03c0,0,0,0,0,0.01
		c-0.16-0.23-0.22-0.58-0.28-1c-0.16-1.01-0.4-2.49-2.47-3.84C33.31,25.88,35.78,27.24,37.02,29.82z"/>
	<path fill-rule="evenodd" clip-rule="evenodd" fill="#FFFFFF" d="M64.14,73.38c-1.44-0.7-7.51-3.34-8.61-3.01
		c-0.21,3.89,1.4,4.48,4.73,5.05c1.91,0.33,7.25,0.78,8.89,0.05L64.14,73.38z M63.43,74.11c0.04-0.02,0.07-0.04,0.11-0.06
		l-0.05,0.04L63.43,74.11z M60.08,73.25l0.03,0.1l0.05,0.09l0.08,0.07l0.1,0.07l0.01,0.01l0.12,0.09l0.15,0.11l0.01,0.01l0.17,0.11
		l0.01,0.01l0.19,0.12l0.02,0.01l0.21,0.12l0.01,0.01l0.22,0.11l0.01,0.01l0.21,0.1h-0.02l-0.38-0.05l-0.34-0.05l-0.29-0.07
		l-0.25-0.09l-0.2-0.09l-0.17-0.11l-0.13-0.12l-0.1-0.13l-0.08-0.16l-0.06-0.2l-0.04-0.24l-0.01-0.18l0.07,0.02l0.07,0.02l0.06,0.02
		l0.02,0.01l0.06,0.02l0.04,0.01l0.06,0.01l0.04,0.01l0,0.12L60.08,73.25z"/>
	<path fill-rule="evenodd" clip-rule="evenodd" fill="#FFFFFF" d="M87.78,75.65c2.45,0.49,6.56,0.33,8.81-0.13
		c3.31-0.67,5.05-1.38,4.5-5.33c-1.09-0.12-10.49,3.7-12.86,4.89C87,75.7,87.69,75.38,87.78,75.65z M94.18,75.03l0.02,0L94.18,75.03
		l-0.39,0.02L94.18,75.03z M95.74,74.82l0.28-0.06L95.74,74.82l-0.04,0.01L95.74,74.82z M97.78,72.62l0-0.04l-0.02-0.11l-0.05-0.09
		l-0.07-0.08l0.12-0.04l0.22-0.06l0.2-0.04l0.18-0.02l0.12,0.01l0.01,0.06l0.02,0.29l-0.01,0.26l-0.05,0.23l-0.07,0.21l-0.11,0.19
		l-0.13,0.18l-0.17,0.17l-0.19,0.16l-0.23,0.15l-0.02,0.01l0.08-0.15l0.03-0.06l0.07-0.21l0.02-0.06l0.05-0.25l0.01-0.05L97.78,73
		v-0.04L97.78,72.62z M91.34,74.76l0.01,0.04l-0.04,0l-0.06-0.01L91.34,74.76z"/>
</g>
</svg>
